<svg xmlns="http://www.w3.org/2000/svg" viewBox="0 0 128 128" role="img" aria-label="Chef Clash logo">
  <defs>
    <linearGradient id="g" x1="0" x2="1" y1="0" y2="1">
      <stop offset="0" stop-color="#ffd78a"/>
      <stop offset="1" stop-color="#ff6b35"/>
    </linearGradient>
  </defs>
  <circle cx="64" cy="64" r="42" fill="url(#g)" opacity=".2"/>
  <path d="M42 84c10-2 16-10 18-19 1-4 1-8 1-12 0-5-1-9-3-13 13 0 27 9 27 25 0 13-10 23-23 23-8 0-15-1-20-4Z" fill="url(#g)"/>
  <path d="M62 30c7 6 11 14 11 22 0 10-6 17-14 22 2-5 2-9 0-13-2-5-6-9-10-12 5-6 8-13 13-19Z" fill="#fff2c6" opacity=".9"/>
</svg>
